<?xml version="1.0" encoding="iso-8859-1"?>
<!-- Generator: Adobe Illustrator 19.1.0, SVG Export Plug-In . SVG Version: 6.00 Build 0)  -->
<svg version="1.1" id="Capa_1" xmlns="http://www.w3.org/2000/svg" xmlns:xlink="http://www.w3.org/1999/xlink" x="0px" y="0px"
	 viewBox="0 0 488.02 488.02" style="enable-background:new 0 0 488.02 488.02;" xml:space="preserve">
<g>
	<path d="M265.374,0c-28.5,0-55.5,6.4-79.6,17.8c-63.7,29.6-107.8,94-107.8,168.8l0,0v24.9v6l-38,72.5c-9.6,18.3-0.5,33.3,20.1,33.3
		h17.9v0.4v31.6v36.9c0,21.5,17.6,39.2,39.2,39.2l53.8-8l0.1,53.8v0.4l0,0c0.3,6.9,6.1,11.5,13.3,10.2l193.8-34.3
		c7.3-1.3,13.3-8.4,13.3-15.8v-8.5v-6.8v-98.6c37.1-34.1,60.4-83,60.4-137.4C451.774,83.4,368.274,0,265.374,0z" fill="white"/>
</g>
</svg>
